<svg xmlns="http://www.w3.org/2000/svg" xmlns:xlink="http://www.w3.org/1999/xlink" width="31px" height="31px" viewBox="0 0 31 31" version="1.1">
<g>
<path fill="#414141" d="M 30.070312 6.082031 C 29.914062 6.125 29.761719 6.167969 29.609375 6.203125 C 28.675781 6.441406 28.589844 6.128906 29.265625 5.441406 C 29.570312 5.136719 29.835938 4.800781 30.070312 4.441406 C 30.589844 3.628906 30.136719 3.277344 29.253906 3.65625 C 28.9375 3.789062 28.617188 3.914062 28.289062 4.023438 C 27.378906 4.328125 26.082031 3.867188 25.269531 3.351562 C 24.242188 2.699219 23.074219 2.375 21.765625 2.375 C 19.9375 2.375 18.375 3.019531 17.082031 4.308594 C 15.792969 5.601562 15.148438 7.164062 15.148438 8.992188 C 15.148438 9.242188 15.160156 9.5 15.1875 9.757812 C 15.234375 10.175781 14.527344 10.480469 13.574219 10.34375 C 11.511719 10.054688 9.554688 9.429688 7.695312 8.472656 C 5.855469 7.519531 4.230469 6.324219 2.820312 4.882812 C 2.148438 4.195312 1.234375 4.253906 0.984375 5.183594 C 0.832031 5.742188 0.757812 6.320312 0.757812 6.921875 C 0.757812 8.058594 1.023438 9.109375 1.558594 10.078125 C 1.824219 10.5625 2.132812 11 2.488281 11.390625 C 3.089844 12.046875 2.996094 12.429688 2.164062 12.195312 C 1.328125 11.960938 0.71875 11.613281 0.71875 11.636719 C 0.71875 11.660156 0.71875 11.679688 0.71875 11.679688 C 0.71875 13.277344 1.21875 14.683594 2.222656 15.890625 C 2.84375 16.636719 3.5625 17.210938 4.378906 17.617188 C 5.242188 18.042969 5.644531 18.28125 5.164062 18.34375 C 4.871094 18.382812 4.578125 18.402344 4.285156 18.402344 C 4.085938 18.402344 3.875 18.390625 3.65625 18.375 C 3.3125 18.34375 3.25 19.0625 3.773438 19.871094 C 4.1875 20.515625 4.722656 21.082031 5.371094 21.570312 C 6.03125 22.066406 6.742188 22.421875 7.503906 22.640625 C 8.429688 22.902344 8.613281 23.382812 7.789062 23.878906 C 5.746094 25.105469 3.484375 25.71875 1.003906 25.71875 C 0.726562 25.71875 0.457031 25.710938 0.203125 25.699219 C -0.238281 25.679688 0.0585938 26.070312 0.910156 26.515625 C 3.578125 27.910156 6.464844 28.609375 9.570312 28.609375 C 11.921875 28.609375 14.128906 28.238281 16.191406 27.492188 C 18.253906 26.746094 20.015625 25.75 21.480469 24.5 C 22.941406 23.25 24.203125 21.8125 25.261719 20.183594 C 26.320312 18.558594 27.109375 16.859375 27.628906 15.09375 C 28.148438 13.324219 28.40625 11.550781 28.40625 9.773438 C 28.40625 9.613281 28.40625 9.46875 28.402344 9.34375 C 28.398438 9.105469 29.027344 8.460938 29.730469 7.800781 C 30.046875 7.503906 30.347656 7.191406 30.636719 6.863281 C 31.277344 6.140625 30.992188 5.8125 30.070312 6.082031 Z M 30.070312 6.082031 "/>
</g>
</svg>
